{
  "accessors": [
    {
      "bufferView": 2,
      "componentType": 5126,
      "count": 438,
      "max": [
        0.27744972705841064,
        0.38526517152786255,
        0.5290290117263794
      ],
      "min": [
        -0.27744972705841064,
        -0.35868269205093384,
        -0.3433821201324463
      ],
      "type": "VEC3"
    },
    {
      "bufferView": 2,
      "byteOffset": 5256,
      "componentType": 5126,
      "count": 438,
      "max": [
        0.9670432209968567,
        0.9386190176010132,
        0.8738956451416016
      ],
      "min": [
        -0.9670432209968567,
        -0.9456279277801514,
        -0.9031941890716553
      ],
      "type": "VEC3"
    },
    {
      "bufferView": 1,
      "componentType": 5126,
      "count": 438,
      "max": [
        1.0,
        1.0
      ],
      "min": [
        0.0,
        0.0
      ],
      "type": "VEC2"
    },
    {
      "bufferView": 0,
      "componentType": 5125,
      "count": 660,
      "type": "SCALAR"
    },
    {
      "bufferView": 2,
      "byteOffset": 10512,
      "componentType": 5126,
      "count": 232,
      "max": [
        0.14775574207305908,
        -0.2191999852657318,
        0.7398355007171631
      ],
      "min": [
        -0.1487300843000412,
        -0.5870957970619202,
        0.37124884128570557
      ],
      "type": "VEC3"
    },
    {
      "bufferView": 2,
      "byteOffset": 13296,
      "componentType": 5126,
      "count": 232,
      "max": [
        0.9749279618263245,
        0.8789284825325012,
        0.8382318019866943
      ],
      "min": [
        -0.9749279618263245,
        -0.8923673629760742,
        -0.845556914806366
      ],
      "type": "VEC3"
    },
    {
      "bufferView": 1,
      "byteOffset": 3504,
      "componentType": 5126,
      "count": 232,
      "max": [
        0.8773168325424194,
        0.38059115409851074
      ],
      "min": [
        0.6226831674575806,
        0.13234148919582367
      ],
      "type": "VEC2"
    },
    {
      "bufferView": 0,
      "byteOffset": 2640,
      "componentType": 5125,
      "count": 354,
      "type": "SCALAR"
    },
    {
      "bufferView": 2,
      "byteOffset": 16080,
      "componentType": 5126,
      "count": 16,
      "max": [
        0.22517523169517517,
        0.1254526972770691,
        0.45309409499168396
      ],
      "min": [
        -0.22523601353168488,
        -0.05099578946828842,
        0.36578676104545593
      ],
      "type": "VEC3"
    },
    {
      "bufferView": 2,
      "byteOffset": 16272,
      "componentType": 5126,
      "count": 16,
      "max": [
        0.420372873544693,
        0.24999971687793732,
        0.8738949298858643
      ],
      "min": [
        0.4169028103351593,
        -0.24955980479717255,
        -0.8723569512367249
      ],
      "type": "VEC3"
    },
    {
      "bufferView": 1,
      "byteOffset": 5360,
      "componentType": 5126,
      "count": 16,
      "max": [
        0.9559925198554993,
        0.45599251985549927
      ],
      "min": [
        0.5440075993537903,
        0.0440075658261776
      ],
      "type": "VEC2"
    },
    {
      "bufferView": 0,
      "byteOffset": 4056,
      "componentType": 5125,
      "count": 36,
      "type": "SCALAR"
    },
    {
      "bufferView": 2,
      "byteOffset": 16464,
      "componentType": 5126,
      "count": 1804,
      "max": [
        1.0743918418884277,
        0.4188975691795349,
        0.41927260160446167
      ],
      "min": [
        -1.0460782051086426,
        -3.5631775856018066,
        -0.8041101098060608
      ],
      "type": "VEC3"
    },
    {
      "bufferView": 2,
      "byteOffset": 38112,
      "componentType": 5126,
      "count": 1804,
      "max": [
        1.0,
        1.0,
        0.9998009204864502
      ],
      "min": [
        -1.0,
        -1.0,
        -0.9945041537284851
      ],
      "type": "VEC3"
    },
    {
      "bufferView": 1,
      "byteOffset": 5488,
      "componentType": 5126,
      "count": 1804,
      "max": [
        1.0,
        1.0
      ],
      "min": [
        0.0,
        0.0
      ],
      "type": "VEC2"
    },
    {
      "bufferView": 0,
      "byteOffset": 4200,
      "componentType": 5125,
      "count": 2598,
      "type": "SCALAR"
    },
    {
      "bufferView": 2,
      "byteOffset": 59760,
      "componentType": 5126,
      "count": 1589,
      "max": [
        1.242645025253296,
        -1.478689432144165,
        0.40309852361679077
      ],
      "min": [
        -1.2066371440887451,
        -4.752498149871826,
        -0.4390966296195984
      ],
      "type": "VEC3"
    },
    {
      "bufferView": 2,
      "byteOffset": 78828,
      "componentType": 5126,
      "count": 1589,
      "max": [
        0.9905732274055481,
        0.9999967217445374,
        0.9995571970939636
      ],
      "min": [
        -0.9950112104415894,
        -0.9999967813491821,
        -0.9995641708374023
      ],
      "type": "VEC3"
    },
    {
      "bufferView": 1,
      "byteOffset": 19920,
      "componentType": 5126,
      "count": 1589,
      "max": [
        0.3750000298023224,
        1.0
      ],
      "min": [
        0.0,
        0.0
      ],
      "type": "VEC2"
    },
    {
      "bufferView": 0,
      "byteOffset": 14592,
      "componentType": 5125,
      "count": 2355,
      "type": "SCALAR"
    }
  ],
  "asset": {
    "extras": {
      "author": "ICEMAN (https://sketchfab.com/toastandthecity)",
      "license": "CC-BY-4.0 (http://creativecommons.org/licenses/by/4.0/)",
      "source": "https://sketchfab.com/3d-models/low-poly-soviet-nbc-suit-8d6ced5d5f124a06a4e40e71513382f3",
      "title": "Low Poly Soviet NBC Suit"
    },
    "generator": "Sketchfab-14.4.0",
    "version": "2.0"
  },
  "bufferViews": [
    {
      "buffer": 0,
      "byteLength": 24012,
      "name": "floatBufferViews",
      "target": 34963
    },
    {
      "buffer": 0,
      "byteLength": 32632,
      "byteOffset": 24012,
      "byteStride": 8,
      "name": "floatBufferViews",
      "target": 34962
    },
    {
      "buffer": 0,
      "byteLength": 97896,
      "byteOffset": 56644,
      "byteStride": 12,
      "name": "floatBufferViews",
      "target": 34962
    }
  ],
  "buffers": [
    {
      "byteLength": 154540,
      "uri": "scene.bin"
    }
  ],
  "materials": [
    {
      "doubleSided": true,
      "name": "White",
      "pbrMetallicRoughness": {
        "baseColorFactor": [
          0.8,
          0.8,
          0.8,
          1.0
        ],
        "metallicFactor": 0.0,
        "roughnessFactor": 0.5
      }
    },
    {
      "doubleSided": true,
      "name": "Green",
      "pbrMetallicRoughness": {
        "baseColorFactor": [
          0.130718,
          0.214033,
          0.0901684,
          1.0
        ],
        "metallicFactor": 0.0,
        "roughnessFactor": 0.5
      }
    },
    {
      "doubleSided": true,
      "name": "DarkGrey"
    },
    {
      "doubleSided": true,
      "name": "suit",
      "pbrMetallicRoughness": {
        "baseColorFactor": [
          0.209889,
          0.429226,
          0.358999,
          1.0
        ],
        "metallicFactor": 0.0,
        "roughnessFactor": 0.5
      }
    },
    {
      "doubleSided": true,
      "name": "material",
      "pbrMetallicRoughness": {
        "baseColorFactor": [
          0.486895,
          0.0502194,
          0.0752388,
          1.0
        ],
        "metallicFactor": 0.0,
        "roughnessFactor": 0.5
      }
    }
  ],
  "meshes": [
    {
      "name": "Object_0",
      "primitives": [
        {
          "attributes": {
            "NORMAL": 1,
            "POSITION": 0,
            "TEXCOORD_0": 2
          },
          "indices": 3,
          "material": 0,
          "mode": 4
        }
      ]
    },
    {
      "name": "Object_1",
      "primitives": [
        {
          "attributes": {
            "NORMAL": 5,
            "POSITION": 4,
            "TEXCOORD_0": 6
          },
          "indices": 7,
          "material": 1,
          "mode": 4
        }
      ]
    },
    {
      "name": "Object_2",
      "primitives": [
        {
          "attributes": {
            "NORMAL": 9,
            "POSITION": 8,
            "TEXCOORD_0": 10
          },
          "indices": 11,
          "material": 2,
          "mode": 4
        }
      ]
    },
    {
      "name": "Object_3",
      "primitives": [
        {
          "attributes": {
            "NORMAL": 13,
            "POSITION": 12,
            "TEXCOORD_0": 14
          },
          "indices": 15,
          "material": 3,
          "mode": 4
        }
      ]
    },
    {
      "name": "Object_4",
      "primitives": [
        {
          "attributes": {
            "NORMAL": 17,
            "POSITION": 16,
            "TEXCOORD_0": 18
          },
          "indices": 19,
          "material": 4,
          "mode": 4
        }
      ]
    }
  ],
  "nodes": [
    {
      "children": [
        1
      ],
      "matrix": [
        1.0,
        0.0,
        0.0,
        0.0,
        0.0,
        2.220446049250313e-16,
        -1.0,
        0.0,
        0.0,
        1.0,
        2.220446049250313e-16,
        0.0,
        0.0,
        0.0,
        0.0,
        1.0
      ],
      "name": "Sketchfab_model"
    },
    {
      "children": [
        2
      ],
      "name": "root"
    },
    {
      "children": [
        3
      ],
      "matrix": [
        1.0,
        0.0,
        0.0,
        0.0,
        0.0,
        2.220446049250313e-16,
        1.0,
        0.0,
        0.0,
        -1.0,
        2.220446049250313e-16,
        0.0,
        0.0,
        0.0,
        0.0,
        1.0
      ],
      "name": "GLTF_SceneRootNode"
    },
    {
      "children": [
        4,
        5,
        6,
        7,
        8
      ],
      "matrix": [
        0.8259921073913574,
        0.0,
        0.0,
        0.0,
        0.0,
        0.8259921073913574,
        0.0,
        0.0,
        0.0,
        0.0,
        0.8259921073913574,
        0.0,
        0.0,
        3.929708957672119,
        0.0,
        1.0
      ],
      "name": "Main_0"
    },
    {
      "mesh": 0,
      "name": "Object_4"
    },
    {
      "mesh": 1,
      "name": "Object_5"
    },
    {
      "mesh": 2,
      "name": "Object_6"
    },
    {
      "mesh": 3,
      "name": "Object_7"
    },
    {
      "mesh": 4,
      "name": "Object_8"
    }
  ],
  "scene": 0,
  "scenes": [
    {
      "name": "Sketchfab_Scene",
      "nodes": [
        0
      ]
    }
  ]
}
